<?xml version="1.0" encoding="UTF-8"?>
<svg id="Layer_1" data-name="Layer 1" xmlns="http://www.w3.org/2000/svg" viewBox="0 0 347.44 100.27">
  <defs>
    <style>
      .cls-1 {
        fill: #34bcae;
      }
    </style>
  </defs>
  <path class="cls-1" d="M112.06,65c1.81,4.99,3.93,6.8,8.39,7.33v3.61h-30.7v-3.61c7.12-.53,8.82-1.81,7.01-6.48l-4.46-11.58h-27.83c-7.12,16.68-16.68,28.68-36.11,28.68-15.93,0-28.36-9.88-28.36-25.39,0-13.49,9.03-21.88,20.07-21.88s17.63,7.01,17.63,15.72c0,5.42-3.61,9.45-8.18,9.45-4.04,0-7.54-2.87-7.54-6.9,0-3.82,2.23-4.67,2.23-7.54,0-2.23-2.34-3.82-5.95-3.82-5.95,0-11.68,5.63-11.68,14.98,0,12.43,10.83,19.23,21.77,19.23,15.51,0,24.64-9.45,32.71-30.59L78.18,1.59h9.56l24.32,63.41ZM66.92,48.22h23.05l-11.68-30.06-11.37,30.06Z"/>
  <path class="cls-1" d="M160.49,41.11c0-5.63-3.19-7.97-7.65-7.97s-8.07,1.49-11.68,3.82v30.38c0,3.4,1.27,4.46,6.59,4.99v3.61h-25.92v-3.61c5.31-.53,6.48-1.59,6.48-4.99v-26.34c0-2.44-.85-3.29-2.97-3.29h-3.51v-3.19l14.76-8.6h4.57v5.2c4.14-2.66,10.52-5.2,16.25-5.2,7.01,0,15.93,2.55,15.93,15.4v42.59c0,7.54,2.55,11.15,6.9,11.15,3.82,0,4.99-2.23,5.84-5.74,1.06-3.72,3.08-5.84,6.48-5.84,3.19,0,5.63,2.23,5.63,5.42,0,7.01-7.22,11.37-18.8,11.37-9.67,0-18.91-5.63-18.91-19.33v-39.83h.01Z"/>
  <path class="cls-1" d="M197.88,53.64c.42,11.15,4.57,18.06,14.87,18.06,6.59,0,12.43-4.35,15.83-12l4.89,2.66c-4.14,9.03-10.94,15.19-21.99,15.19-17.31,0-27.08-11.05-27.08-25.81s9.88-25.81,25.17-25.81c10.2,0,19.65,4.67,21.77,16.57l-33.46,11.15h0ZM219.02,40.57c-.43-5.52-3.93-9.35-9.24-9.35-8.82,0-11.47,6.16-11.79,16.46l21.03-7.12h0Z"/>
  <path class="cls-1" d="M236.23,75.94v-3.61c5.31-.53,6.48-1.59,6.48-4.99V15.08c0-2.44-.85-3.29-2.97-3.29h-3.5v-3.19l14.76-8.6h4.57v67.34c0,3.4,1.27,4.46,6.58,4.99v3.61s-25.92,0-25.92,0Z"/>
  <path class="cls-1" d="M266.92,75.94v-3.61c5.31-.53,6.48-1.59,6.48-4.99V15.08c0-2.44-.85-3.29-2.97-3.29h-3.5v-3.19l14.76-8.6h4.57v67.34c0,3.4,1.27,4.46,6.58,4.99v3.61s-25.92,0-25.92,0Z"/>
  <path class="cls-1" d="M311.85,53.64c.42,11.15,4.57,18.06,14.87,18.06,6.59,0,12.43-4.35,15.83-12l4.89,2.66c-4.14,9.03-10.94,15.19-21.99,15.19-17.31,0-27.08-11.05-27.08-25.81s9.88-25.81,25.17-25.81c10.2,0,19.65,4.67,21.77,16.57l-33.46,11.15h0ZM332.99,40.57c-.43-5.52-3.93-9.35-9.24-9.35-8.82,0-11.47,6.16-11.79,16.46l21.03-7.12h0Z"/>
</svg>